<svg xmlns="http://www.w3.org/2000/svg" width="800" height="800" class="icon" viewBox="0 0 1024 1024">
  <path fill="#FFE000" d="M27.034 518.779a489.124 489.124 0 1 0 978.247 0 489.124 489.124 0 1 0-978.247 0Z"/>
  <path fill="#FFF" d="M84.086 518.779a432.072 432.072 0 1 0 864.143 0 432.072 432.072 0 1 0-864.143 0Z"/>
  <path fill="#FFE000" d="M537.994 142.52v331.802l233.15-233.15c-62.162-57.118-143.37-93.501-233.15-98.652zm-36.828-.343c-90.762 3.574-173.128 39.06-236.406 95.74l236.406 236.405V142.177zM475.121 537.19H139.73c4.408 91.136 40.98 173.625 98.826 236.57l236.565-236.57zm.005-36.828-236.57-236.57c-57.85 62.946-94.418 145.44-98.826 236.57h335.396zm26.04 62.869L264.76 799.64c63.278 56.684 145.639 92.17 236.406 95.745V563.23zm62.869-26.04L797.02 770.175c55.972-62.484 91.244-143.57 95.57-232.986H564.035zm-26.04 26.04v331.801c89.784-5.15 170.992-41.528 233.149-98.652l-233.15-233.15z"/>
  <path fill="#FFB600" d="M564.035 500.362H892.59c-4.326-89.415-39.603-170.5-95.57-232.985L564.035 500.362z"/>
</svg>
