<svg xmlns="http://www.w3.org/2000/svg" width="800" height="800" class="icon" viewBox="0 0 1024 1024">
  <path fill="#FF7100" d="M38.569 539.494a472.182 472.182 0 1 0 944.363 0 472.182 472.182 0 1 0-944.363 0Z"/>
  <path fill="#30C03F" d="M508.79 219.228c-20.685-44.636 19.466-107.202 89.687-139.745 70.215-32.543 143.908-22.733 164.598 21.903L508.79 219.228z"/>
  <path fill="#97CF43" d="M508.79 219.228c20.685 44.636 94.377 54.446 164.598 21.904 70.215-32.543 110.371-95.104 89.687-139.746L508.79 219.228z"/>
  <path fill="#FFA05F" d="M346.67 220.498a23.654 23.654 0 1 0 47.309 0 23.654 23.654 0 1 0-47.309 0ZM230.554 313.677a23.654 23.654 0 1 0 47.308 0 23.654 23.654 0 1 0-47.308 0ZM719.759 281.068a23.654 23.654 0 1 0 47.31 0 23.654 23.654 0 1 0-47.31 0ZM835.876 388.224a23.654 23.654 0 1 0 47.309 0 23.654 23.654 0 1 0-47.31 0ZM743.414 434.816a23.654 23.654 0 1 0 47.309 0 23.654 23.654 0 1 0-47.31 0ZM607.939 346.655a23.654 23.654 0 1 0 47.308 0 23.654 23.654 0 1 0-47.308 0ZM854.513 565.268a23.654 23.654 0 1 0 47.308 0 23.654 23.654 0 1 0-47.308 0Z"/>
  <path fill="#5A4530" d="M504.023 224.353s-27.494-173.225-8.248-192.47 33.91-12.171 41.246-5.5c15.125 13.748-16.496 159.478-16.496 178.724 0 19.246-8.249 38.492-16.502 19.246z"/>
  <path fill="#5A4530" d="M460.37 221.66s33.198-5.243 54.164 0c20.967 5.243 22.713 6.989 26.21 12.232 3.492 5.243-24.459 3.492-24.459 3.492s-19.22-5.243-31.447-5.243h-20.966s-13.983-5.238-3.502-10.48z"/>
</svg>
